<?xml version="1.0" encoding="UTF-8" standalone="no"?>
<!DOCTYPE svg PUBLIC "-//W3C//DTD SVG 1.1//EN"
 "http://www.w3.org/Graphics/SVG/1.1/DTD/svg11.dtd">
<!-- Generated by graphviz version 2.47.3 (20210619.1520)
 -->
<!-- Title: dependencies Pages: 1 -->
<svg width="686pt" height="247pt"
 viewBox="0.00 0.00 686.00 246.80" xmlns="http://www.w3.org/2000/svg" xmlns:xlink="http://www.w3.org/1999/xlink">
<g id="graph0" class="graph" transform="scale(1 1) rotate(0) translate(4 242.8)">
<title>dependencies</title>
<polygon fill="white" stroke="transparent" points="-4,4 -4,-242.8 682,-242.8 682,4 -4,4"/>
<text text-anchor="middle" x="339" y="-8.2" font-family="sans-serif" font-size="14.00">dependencies</text>
<g id="clust1" class="cluster">
<title>cluster_TableDataModule</title>
<polygon fill="none" stroke="black" stroke-dasharray="1,5" points="8,-32.8 8,-230.8 670,-230.8 670,-32.8 8,-32.8"/>
</g>
<g id="clust4" class="cluster">
<title>cluster_TableDataModule_exports</title>
<polygon fill="none" stroke="black" points="93,-170.8 93,-222.8 587,-222.8 587,-170.8 93,-170.8"/>
</g>
<g id="clust6" class="cluster">
<title>cluster_TableDataModule_providers</title>
<polygon fill="none" stroke="black" points="16,-40.8 16,-92.8 662,-92.8 662,-40.8 16,-40.8"/>
</g>
<!-- TableDataOneService  -->
<g id="node1" class="node">
<title>TableDataOneService </title>
<polygon fill="#fb8072" stroke="black" points="578.6,-214.8 435.4,-214.8 435.4,-178.8 578.6,-178.8 578.6,-214.8"/>
<text text-anchor="middle" x="507" y="-192.6" font-family="Times,serif" font-size="14.00">TableDataOneService </text>
</g>
<!-- TableDataThreeService  -->
<g id="node2" class="node">
<title>TableDataThreeService </title>
<polygon fill="#fb8072" stroke="black" points="417.42,-214.8 264.58,-214.8 264.58,-178.8 417.42,-178.8 417.42,-214.8"/>
<text text-anchor="middle" x="341" y="-192.6" font-family="Times,serif" font-size="14.00">TableDataThreeService </text>
</g>
<!-- TableDataTwoService  -->
<g id="node3" class="node">
<title>TableDataTwoService </title>
<polygon fill="#fb8072" stroke="black" points="246.94,-214.8 101.06,-214.8 101.06,-178.8 246.94,-178.8 246.94,-214.8"/>
<text text-anchor="middle" x="174" y="-192.6" font-family="Times,serif" font-size="14.00">TableDataTwoService </text>
</g>
<!-- TableDataModule -->
<g id="node4" class="node">
<title>TableDataModule</title>
<polygon fill="#8dd3c7" stroke="black" points="399.85,-149.8 396.85,-153.8 375.85,-153.8 372.85,-149.8 282.15,-149.8 282.15,-113.8 399.85,-113.8 399.85,-149.8"/>
<text text-anchor="middle" x="341" y="-127.6" font-family="Times,serif" font-size="14.00">TableDataModule</text>
</g>
<!-- TableDataModule&#45;&gt;TableDataOneService  -->
<g id="edge1" class="edge">
<title>TableDataModule&#45;&gt;TableDataOneService </title>
<path fill="none" stroke="black" stroke-dasharray="5,2" d="M400.06,-137.8C421.05,-137.8 439.59,-137.8 439.59,-137.8 439.59,-137.8 439.59,-168.78 439.59,-168.78"/>
<polygon fill="black" stroke="black" points="436.09,-168.78 439.59,-178.78 443.09,-168.78 436.09,-168.78"/>
</g>
<!-- TableDataModule&#45;&gt;TableDataThreeService  -->
<g id="edge2" class="edge">
<title>TableDataModule&#45;&gt;TableDataThreeService </title>
<path fill="none" stroke="black" stroke-dasharray="5,2" d="M341,-149.91C341,-149.91 341,-168.79 341,-168.79"/>
<polygon fill="black" stroke="black" points="337.5,-168.79 341,-178.79 344.5,-168.79 337.5,-168.79"/>
</g>
<!-- TableDataModule&#45;&gt;TableDataTwoService  -->
<g id="edge3" class="edge">
<title>TableDataModule&#45;&gt;TableDataTwoService </title>
<path fill="none" stroke="black" stroke-dasharray="5,2" d="M282,-137.8C261.02,-137.8 242.5,-137.8 242.5,-137.8 242.5,-137.8 242.5,-168.78 242.5,-168.78"/>
<polygon fill="black" stroke="black" points="239,-168.78 242.5,-178.78 246,-168.78 239,-168.78"/>
</g>
<!-- TableDataOneService -->
<g id="node5" class="node">
<title>TableDataOneService</title>
<ellipse fill="#fdb462" stroke="black" cx="558" cy="-66.8" rx="96.08" ry="18"/>
<text text-anchor="middle" x="558" y="-62.6" font-family="Times,serif" font-size="14.00">TableDataOneService</text>
</g>
<!-- TableDataOneService&#45;&gt;TableDataModule -->
<g id="edge4" class="edge">
<title>TableDataOneService&#45;&gt;TableDataModule</title>
<path fill="none" stroke="black" d="M520.13,-83.55C520.13,-100.99 520.13,-125.8 520.13,-125.8 520.13,-125.8 410.15,-125.8 410.15,-125.8"/>
<polygon fill="black" stroke="black" points="410.15,-122.3 400.15,-125.8 410.15,-129.3 410.15,-122.3"/>
</g>
<!-- TableDataThreeService -->
<g id="node6" class="node">
<title>TableDataThreeService</title>
<ellipse fill="#fdb462" stroke="black" cx="341" cy="-66.8" rx="102.94" ry="18"/>
<text text-anchor="middle" x="341" y="-62.6" font-family="Times,serif" font-size="14.00">TableDataThreeService</text>
</g>
<!-- TableDataThreeService&#45;&gt;TableDataModule -->
<g id="edge5" class="edge">
<title>TableDataThreeService&#45;&gt;TableDataModule</title>
<path fill="none" stroke="black" d="M341,-84.91C341,-84.91 341,-103.79 341,-103.79"/>
<polygon fill="black" stroke="black" points="337.5,-103.79 341,-113.79 344.5,-103.79 337.5,-103.79"/>
</g>
<!-- TableDataTwoService -->
<g id="node7" class="node">
<title>TableDataTwoService</title>
<ellipse fill="#fdb462" stroke="black" cx="122" cy="-66.8" rx="97.81" ry="18"/>
<text text-anchor="middle" x="122" y="-62.6" font-family="Times,serif" font-size="14.00">TableDataTwoService</text>
</g>
<!-- TableDataTwoService&#45;&gt;TableDataModule -->
<g id="edge6" class="edge">
<title>TableDataTwoService&#45;&gt;TableDataModule</title>
<path fill="none" stroke="black" d="M160.59,-83.55C160.59,-100.99 160.59,-125.8 160.59,-125.8 160.59,-125.8 271.93,-125.8 271.93,-125.8"/>
<polygon fill="black" stroke="black" points="271.93,-129.3 281.93,-125.8 271.93,-122.3 271.93,-129.3"/>
</g>
</g>
</svg>
