<?xml version="1.0" encoding="UTF-8" standalone="no"?>
<!DOCTYPE svg PUBLIC "-//W3C//DTD SVG 1.1//EN"
 "http://www.w3.org/Graphics/SVG/1.1/DTD/svg11.dtd">
<!-- Generated by graphviz version 2.47.3 (20210619.1520)
 -->
<!-- Title: dependencies Pages: 1 -->
<svg width="529pt" height="174pt"
 viewBox="0.00 0.00 529.00 173.80" xmlns="http://www.w3.org/2000/svg" xmlns:xlink="http://www.w3.org/1999/xlink">
<g id="graph0" class="graph" transform="scale(1 1) rotate(0) translate(4 169.8)">
<title>dependencies</title>
<polygon fill="white" stroke="transparent" points="-4,4 -4,-169.8 525,-169.8 525,4 -4,4"/>
<text text-anchor="middle" x="260.5" y="-8.2" font-family="sans-serif" font-size="14.00">dependencies</text>
<g id="clust1" class="cluster">
<title>cluster_AppModule</title>
<polygon fill="none" stroke="black" stroke-dasharray="1,5" points="8,-32.8 8,-157.8 513,-157.8 513,-32.8 8,-32.8"/>
</g>
<g id="clust3" class="cluster">
<title>cluster_AppModule_imports</title>
<polygon fill="none" stroke="black" points="16,-40.8 16,-92.8 505,-92.8 505,-40.8 16,-40.8"/>
</g>
<!-- ConfigModule -->
<g id="node1" class="node">
<title>ConfigModule</title>
<polygon fill="#8dd3c7" stroke="black" points="497.44,-84.8 494.44,-88.8 473.44,-88.8 470.44,-84.8 398.56,-84.8 398.56,-48.8 497.44,-48.8 497.44,-84.8"/>
<text text-anchor="middle" x="448" y="-62.6" font-family="Times,serif" font-size="14.00">ConfigModule</text>
</g>
<!-- AppModule -->
<g id="node5" class="node">
<title>AppModule</title>
<polygon fill="#8dd3c7" stroke="black" points="300.66,-149.8 297.66,-153.8 276.66,-153.8 273.66,-149.8 217.34,-149.8 217.34,-113.8 300.66,-113.8 300.66,-149.8"/>
<text text-anchor="middle" x="259" y="-127.6" font-family="Times,serif" font-size="14.00">AppModule</text>
</g>
<!-- ConfigModule&#45;&gt;AppModule -->
<g id="edge1" class="edge">
<title>ConfigModule&#45;&gt;AppModule</title>
<path fill="none" stroke="black" d="M448,-84.91C448,-104.14 448,-131.8 448,-131.8 448,-131.8 310.95,-131.8 310.95,-131.8"/>
<polygon fill="black" stroke="black" points="310.95,-128.3 300.95,-131.8 310.95,-135.3 310.95,-128.3"/>
</g>
<!-- DatabaseModule -->
<g id="node2" class="node">
<title>DatabaseModule</title>
<polygon fill="#8dd3c7" stroke="black" points="380.35,-84.8 377.35,-88.8 356.35,-88.8 353.35,-84.8 269.65,-84.8 269.65,-48.8 380.35,-48.8 380.35,-84.8"/>
<text text-anchor="middle" x="325" y="-62.6" font-family="Times,serif" font-size="14.00">DatabaseModule</text>
</g>
<!-- DatabaseModule&#45;&gt;AppModule -->
<g id="edge2" class="edge">
<title>DatabaseModule&#45;&gt;AppModule</title>
<path fill="none" stroke="black" d="M285.2,-84.91C285.2,-84.91 285.2,-103.79 285.2,-103.79"/>
<polygon fill="black" stroke="black" points="281.7,-103.79 285.2,-113.79 288.7,-103.79 281.7,-103.79"/>
</g>
<!-- TableDataModule -->
<g id="node3" class="node">
<title>TableDataModule</title>
<polygon fill="#8dd3c7" stroke="black" points="251.85,-84.8 248.85,-88.8 227.85,-88.8 224.85,-84.8 134.15,-84.8 134.15,-48.8 251.85,-48.8 251.85,-84.8"/>
<text text-anchor="middle" x="193" y="-62.6" font-family="Times,serif" font-size="14.00">TableDataModule</text>
</g>
<!-- TableDataModule&#45;&gt;AppModule -->
<g id="edge3" class="edge">
<title>TableDataModule&#45;&gt;AppModule</title>
<path fill="none" stroke="black" d="M234.55,-84.91C234.55,-84.91 234.55,-103.79 234.55,-103.79"/>
<polygon fill="black" stroke="black" points="231.05,-103.79 234.55,-113.79 238.05,-103.79 231.05,-103.79"/>
</g>
<!-- TableModule -->
<g id="node4" class="node">
<title>TableModule</title>
<polygon fill="#8dd3c7" stroke="black" points="115.92,-84.8 112.92,-88.8 91.92,-88.8 88.92,-84.8 24.08,-84.8 24.08,-48.8 115.92,-48.8 115.92,-84.8"/>
<text text-anchor="middle" x="70" y="-62.6" font-family="Times,serif" font-size="14.00">TableModule</text>
</g>
<!-- TableModule&#45;&gt;AppModule -->
<g id="edge4" class="edge">
<title>TableModule&#45;&gt;AppModule</title>
<path fill="none" stroke="black" d="M70,-84.91C70,-104.14 70,-131.8 70,-131.8 70,-131.8 207.05,-131.8 207.05,-131.8"/>
<polygon fill="black" stroke="black" points="207.05,-135.3 217.05,-131.8 207.05,-128.3 207.05,-135.3"/>
</g>
</g>
</svg>
