<?xml version="1.0" encoding="UTF-8" standalone="no"?>
<!DOCTYPE svg PUBLIC "-//W3C//DTD SVG 1.1//EN"
 "http://www.w3.org/Graphics/SVG/1.1/DTD/svg11.dtd">
<!-- Generated by graphviz version 2.47.3 (20210619.1520)
 -->
<!-- Title: dependencies Pages: 1 -->
<svg width="2216pt" height="253pt"
 viewBox="0.00 0.00 2216.00 252.80" xmlns="http://www.w3.org/2000/svg" xmlns:xlink="http://www.w3.org/1999/xlink">
<g id="graph0" class="graph" transform="scale(1 1) rotate(0) translate(4 248.8)">
<title>dependencies</title>
<polygon fill="white" stroke="transparent" points="-4,4 -4,-248.8 2212,-248.8 2212,4 -4,4"/>
<text text-anchor="middle" x="1104" y="-8.2" font-family="sans-serif" font-size="14.00">dependencies</text>
<g id="clust1" class="cluster">
<title>cluster_AppModule</title>
<polygon fill="none" stroke="black" stroke-dasharray="1,5" points="8,-32.8 8,-160.8 513,-160.8 513,-32.8 8,-32.8"/>
</g>
<g id="clust3" class="cluster">
<title>cluster_AppModule_imports</title>
<polygon fill="none" stroke="black" points="16,-40.8 16,-92.8 505,-92.8 505,-40.8 16,-40.8"/>
</g>
<g id="clust19" class="cluster">
<title>cluster_TableDataModule</title>
<polygon fill="none" stroke="black" stroke-dasharray="1,5" points="521,-100.8 521,-168.8 1684,-168.8 1684,-100.8 521,-100.8"/>
</g>
<g id="clust22" class="cluster">
<title>cluster_TableDataModule_exports</title>
<polygon fill="none" stroke="black" points="1183,-108.8 1183,-160.8 1676,-160.8 1676,-108.8 1183,-108.8"/>
</g>
<g id="clust24" class="cluster">
<title>cluster_TableDataModule_providers</title>
<polygon fill="none" stroke="black" points="529,-108.8 529,-160.8 1175,-160.8 1175,-108.8 529,-108.8"/>
</g>
<g id="clust25" class="cluster">
<title>cluster_TableModule</title>
<polygon fill="none" stroke="black" stroke-dasharray="1,5" points="1692,-100.8 1692,-168.8 1966,-168.8 1966,-100.8 1692,-100.8"/>
</g>
<g id="clust28" class="cluster">
<title>cluster_TableModule_exports</title>
<polygon fill="none" stroke="black" points="1848,-108.8 1848,-160.8 1958,-160.8 1958,-108.8 1848,-108.8"/>
</g>
<g id="clust30" class="cluster">
<title>cluster_TableModule_providers</title>
<polygon fill="none" stroke="black" points="1700,-108.8 1700,-160.8 1840,-160.8 1840,-108.8 1700,-108.8"/>
</g>
<g id="clust31" class="cluster">
<title>cluster_TableStructureModule</title>
<polygon fill="none" stroke="black" stroke-dasharray="1,5" points="1974,-32.8 1974,-236.8 2200,-236.8 2200,-32.8 1974,-32.8"/>
</g>
<g id="clust34" class="cluster">
<title>cluster_TableStructureModule_exports</title>
<polygon fill="none" stroke="black" points="2007,-176.8 2007,-228.8 2167,-228.8 2167,-176.8 2007,-176.8"/>
</g>
<g id="clust36" class="cluster">
<title>cluster_TableStructureModule_providers</title>
<polygon fill="none" stroke="black" points="1982,-40.8 1982,-92.8 2192,-92.8 2192,-40.8 1982,-40.8"/>
</g>
<!-- ConfigModule -->
<g id="node1" class="node">
<title>ConfigModule</title>
<polygon fill="#8dd3c7" stroke="black" points="251.44,-84.8 248.44,-88.8 227.44,-88.8 224.44,-84.8 152.56,-84.8 152.56,-48.8 251.44,-48.8 251.44,-84.8"/>
<text text-anchor="middle" x="202" y="-62.6" font-family="Times,serif" font-size="14.00">ConfigModule</text>
</g>
<!-- AppModule -->
<g id="node5" class="node">
<title>AppModule</title>
<polygon fill="#8dd3c7" stroke="black" points="306.66,-152.8 303.66,-156.8 282.66,-156.8 279.66,-152.8 223.34,-152.8 223.34,-116.8 306.66,-116.8 306.66,-152.8"/>
<text text-anchor="middle" x="265" y="-130.6" font-family="Times,serif" font-size="14.00">AppModule</text>
</g>
<!-- ConfigModule&#45;&gt;AppModule -->
<g id="edge1" class="edge">
<title>ConfigModule&#45;&gt;AppModule</title>
<path fill="none" stroke="black" d="M237.2,-85.02C237.2,-85.02 237.2,-106.53 237.2,-106.53"/>
<polygon fill="black" stroke="black" points="233.7,-106.53 237.2,-116.53 240.7,-106.53 233.7,-106.53"/>
</g>
<!-- DatabaseModule -->
<g id="node2" class="node">
<title>DatabaseModule</title>
<polygon fill="#8dd3c7" stroke="black" points="134.35,-84.8 131.35,-88.8 110.35,-88.8 107.35,-84.8 23.65,-84.8 23.65,-48.8 134.35,-48.8 134.35,-84.8"/>
<text text-anchor="middle" x="79" y="-62.6" font-family="Times,serif" font-size="14.00">DatabaseModule</text>
</g>
<!-- DatabaseModule&#45;&gt;AppModule -->
<g id="edge2" class="edge">
<title>DatabaseModule&#45;&gt;AppModule</title>
<path fill="none" stroke="black" d="M79,-85.02C79,-105.17 79,-134.8 79,-134.8 79,-134.8 213.26,-134.8 213.26,-134.8"/>
<polygon fill="black" stroke="black" points="213.26,-138.3 223.26,-134.8 213.26,-131.3 213.26,-138.3"/>
</g>
<!-- TableDataModule -->
<g id="node3" class="node">
<title>TableDataModule</title>
<polygon fill="#8dd3c7" stroke="black" points="386.85,-84.8 383.85,-88.8 362.85,-88.8 359.85,-84.8 269.15,-84.8 269.15,-48.8 386.85,-48.8 386.85,-84.8"/>
<text text-anchor="middle" x="328" y="-62.6" font-family="Times,serif" font-size="14.00">TableDataModule</text>
</g>
<!-- TableDataModule&#45;&gt;AppModule -->
<g id="edge3" class="edge">
<title>TableDataModule&#45;&gt;AppModule</title>
<path fill="none" stroke="black" d="M287.95,-85.02C287.95,-85.02 287.95,-106.53 287.95,-106.53"/>
<polygon fill="black" stroke="black" points="284.45,-106.53 287.95,-116.53 291.45,-106.53 284.45,-106.53"/>
</g>
<!-- TableDataOneService  -->
<g id="node6" class="node">
<title>TableDataOneService </title>
<polygon fill="#fb8072" stroke="black" points="1334.6,-152.8 1191.4,-152.8 1191.4,-116.8 1334.6,-116.8 1334.6,-152.8"/>
<text text-anchor="middle" x="1263" y="-130.6" font-family="Times,serif" font-size="14.00">TableDataOneService </text>
</g>
<!-- TableDataModule&#45;&gt;TableDataOneService  -->
<g id="edge5" class="edge">
<title>TableDataModule&#45;&gt;TableDataOneService </title>
<path fill="none" stroke="black" stroke-dasharray="5,2" d="M318.27,-84.99C318.27,-93.08 318.27,-100.8 318.27,-100.8 318.27,-100.8 1263,-100.8 1263,-100.8 1263,-100.8 1263,-106.61 1263,-106.61"/>
<polygon fill="black" stroke="black" points="1259.5,-106.61 1263,-116.61 1266.5,-106.61 1259.5,-106.61"/>
</g>
<!-- TableDataThreeService  -->
<g id="node7" class="node">
<title>TableDataThreeService </title>
<polygon fill="#fb8072" stroke="black" points="1668.42,-152.8 1515.58,-152.8 1515.58,-116.8 1668.42,-116.8 1668.42,-152.8"/>
<text text-anchor="middle" x="1592" y="-130.6" font-family="Times,serif" font-size="14.00">TableDataThreeService </text>
</g>
<!-- TableDataModule&#45;&gt;TableDataThreeService  -->
<g id="edge6" class="edge">
<title>TableDataModule&#45;&gt;TableDataThreeService </title>
<path fill="none" stroke="black" stroke-dasharray="5,2" d="M341.16,-84.99C341.16,-88.34 341.16,-90.8 341.16,-90.8 341.16,-90.8 1592,-90.8 1592,-90.8 1592,-90.8 1592,-106.65 1592,-106.65"/>
<polygon fill="black" stroke="black" points="1588.5,-106.65 1592,-116.65 1595.5,-106.65 1588.5,-106.65"/>
</g>
<!-- TableDataTwoService  -->
<g id="node8" class="node">
<title>TableDataTwoService </title>
<polygon fill="#fb8072" stroke="black" points="1497.94,-152.8 1352.06,-152.8 1352.06,-116.8 1497.94,-116.8 1497.94,-152.8"/>
<text text-anchor="middle" x="1425" y="-130.6" font-family="Times,serif" font-size="14.00">TableDataTwoService </text>
</g>
<!-- TableDataModule&#45;&gt;TableDataTwoService  -->
<g id="edge7" class="edge">
<title>TableDataModule&#45;&gt;TableDataTwoService </title>
<path fill="none" stroke="black" stroke-dasharray="5,2" d="M329.71,-85C329.71,-90.83 329.71,-95.8 329.71,-95.8 329.71,-95.8 1425,-95.8 1425,-95.8 1425,-95.8 1425,-106.67 1425,-106.67"/>
<polygon fill="black" stroke="black" points="1421.5,-106.67 1425,-116.67 1428.5,-106.67 1421.5,-106.67"/>
</g>
<!-- TableModule -->
<g id="node4" class="node">
<title>TableModule</title>
<polygon fill="#8dd3c7" stroke="black" points="496.92,-84.8 493.92,-88.8 472.92,-88.8 469.92,-84.8 405.08,-84.8 405.08,-48.8 496.92,-48.8 496.92,-84.8"/>
<text text-anchor="middle" x="451" y="-62.6" font-family="Times,serif" font-size="14.00">TableModule</text>
</g>
<!-- TableModule&#45;&gt;AppModule -->
<g id="edge4" class="edge">
<title>TableModule&#45;&gt;AppModule</title>
<path fill="none" stroke="black" d="M451,-85.07C451,-103.36 451,-128.8 451,-128.8 451,-128.8 316.74,-128.8 316.74,-128.8"/>
<polygon fill="black" stroke="black" points="316.74,-125.3 306.74,-128.8 316.74,-132.3 316.74,-125.3"/>
</g>
<!-- TableService  -->
<g id="node12" class="node">
<title>TableService </title>
<polygon fill="#fb8072" stroke="black" points="1949.85,-152.8 1856.15,-152.8 1856.15,-116.8 1949.85,-116.8 1949.85,-152.8"/>
<text text-anchor="middle" x="1903" y="-130.6" font-family="Times,serif" font-size="14.00">TableService </text>
</g>
<!-- TableModule&#45;&gt;TableService  -->
<g id="edge11" class="edge">
<title>TableModule&#45;&gt;TableService </title>
<path fill="none" stroke="black" stroke-dasharray="5,2" d="M496.85,-60.8C743.67,-60.8 1903,-60.8 1903,-60.8 1903,-60.8 1903,-106.51 1903,-106.51"/>
<polygon fill="black" stroke="black" points="1899.5,-106.51 1903,-116.51 1906.5,-106.51 1899.5,-106.51"/>
</g>
<!-- TableDataOneService -->
<g id="node9" class="node">
<title>TableDataOneService</title>
<ellipse fill="#fdb462" stroke="black" cx="633" cy="-134.8" rx="96.08" ry="18"/>
<text text-anchor="middle" x="633" y="-130.6" font-family="Times,serif" font-size="14.00">TableDataOneService</text>
</g>
<!-- TableDataOneService&#45;&gt;TableDataModule -->
<g id="edge8" class="edge">
<title>TableDataOneService&#45;&gt;TableDataModule</title>
<path fill="none" stroke="black" d="M542.21,-140.8C468.07,-140.8 375.48,-140.8 375.48,-140.8 375.48,-140.8 375.48,-95.09 375.48,-95.09"/>
<polygon fill="black" stroke="black" points="378.98,-95.09 375.48,-85.09 371.98,-95.09 378.98,-95.09"/>
</g>
<!-- TableDataThreeService -->
<g id="node10" class="node">
<title>TableDataThreeService</title>
<ellipse fill="#fdb462" stroke="black" cx="1064" cy="-134.8" rx="102.94" ry="18"/>
<text text-anchor="middle" x="1064" y="-130.6" font-family="Times,serif" font-size="14.00">TableDataThreeService</text>
</g>
<!-- TableDataThreeService&#45;&gt;TableDataModule -->
<g id="edge9" class="edge">
<title>TableDataThreeService&#45;&gt;TableDataModule</title>
<path fill="none" stroke="black" d="M1064,-116.59C1064,-111.25 1064,-106.8 1064,-106.8 1064,-106.8 364.04,-106.8 364.04,-106.8 364.04,-106.8 364.04,-94.93 364.04,-94.93"/>
<polygon fill="black" stroke="black" points="367.54,-94.93 364.04,-84.93 360.54,-94.93 367.54,-94.93"/>
</g>
<!-- TableDataTwoService -->
<g id="node11" class="node">
<title>TableDataTwoService</title>
<ellipse fill="#fdb462" stroke="black" cx="845" cy="-134.8" rx="97.81" ry="18"/>
<text text-anchor="middle" x="845" y="-130.6" font-family="Times,serif" font-size="14.00">TableDataTwoService</text>
</g>
<!-- TableDataTwoService&#45;&gt;TableDataModule -->
<g id="edge10" class="edge">
<title>TableDataTwoService&#45;&gt;TableDataModule</title>
<path fill="none" stroke="black" d="M845,-116.68C845,-113.83 845,-111.8 845,-111.8 845,-111.8 352.6,-111.8 352.6,-111.8 352.6,-111.8 352.6,-94.84 352.6,-94.84"/>
<polygon fill="black" stroke="black" points="356.1,-94.84 352.6,-84.84 349.1,-94.84 356.1,-94.84"/>
</g>
<!-- TableService -->
<g id="node13" class="node">
<title>TableService</title>
<ellipse fill="#fdb462" stroke="black" cx="1770" cy="-134.8" rx="61.95" ry="18"/>
<text text-anchor="middle" x="1770" y="-130.6" font-family="Times,serif" font-size="14.00">TableService</text>
</g>
<!-- TableService&#45;&gt;TableModule -->
<g id="edge12" class="edge">
<title>TableService&#45;&gt;TableModule</title>
<path fill="none" stroke="black" d="M1770,-116.53C1770,-98.24 1770,-72.8 1770,-72.8 1770,-72.8 506.79,-72.8 506.79,-72.8"/>
<polygon fill="black" stroke="black" points="506.79,-69.3 496.79,-72.8 506.79,-76.3 506.79,-69.3"/>
</g>
<!-- TableStructureService  -->
<g id="node14" class="node">
<title>TableStructureService </title>
<polygon fill="#fb8072" stroke="black" points="2159.16,-220.8 2014.84,-220.8 2014.84,-184.8 2159.16,-184.8 2159.16,-220.8"/>
<text text-anchor="middle" x="2087" y="-198.6" font-family="Times,serif" font-size="14.00">TableStructureService </text>
</g>
<!-- TableStructureModule -->
<g id="node15" class="node">
<title>TableStructureModule</title>
<polygon fill="#8dd3c7" stroke="black" points="2158.24,-152.8 2155.24,-156.8 2134.24,-156.8 2131.24,-152.8 2015.76,-152.8 2015.76,-116.8 2158.24,-116.8 2158.24,-152.8"/>
<text text-anchor="middle" x="2087" y="-130.6" font-family="Times,serif" font-size="14.00">TableStructureModule</text>
</g>
<!-- TableStructureModule&#45;&gt;TableStructureService  -->
<g id="edge13" class="edge">
<title>TableStructureModule&#45;&gt;TableStructureService </title>
<path fill="none" stroke="black" stroke-dasharray="5,2" d="M2087,-153.02C2087,-153.02 2087,-174.53 2087,-174.53"/>
<polygon fill="black" stroke="black" points="2083.5,-174.53 2087,-184.53 2090.5,-174.53 2083.5,-174.53"/>
</g>
<!-- TableStructureService -->
<g id="node16" class="node">
<title>TableStructureService</title>
<ellipse fill="#fdb462" stroke="black" cx="2087" cy="-66.8" rx="97.25" ry="18"/>
<text text-anchor="middle" x="2087" y="-62.6" font-family="Times,serif" font-size="14.00">TableStructureService</text>
</g>
<!-- TableStructureService&#45;&gt;TableStructureModule -->
<g id="edge14" class="edge">
<title>TableStructureService&#45;&gt;TableStructureModule</title>
<path fill="none" stroke="black" d="M2087,-85.02C2087,-85.02 2087,-106.53 2087,-106.53"/>
<polygon fill="black" stroke="black" points="2083.5,-106.53 2087,-116.53 2090.5,-106.53 2083.5,-106.53"/>
</g>
</g>
</svg>
